<?xml version="1.0" encoding="UTF-8"?>
<!DOCTYPE svg PUBLIC "-//W3C//DTD SVG 1.1//EN" "http://www.w3.org/Graphics/SVG/1.1/DTD/svg11.dtd">
<svg xmlns="http://www.w3.org/2000/svg" version="1.1" viewBox="0 0 35 35" stroke="none">
	<rect width="100%" height="100%" fill="white"/>
	<path d="M3,3h7v1h-7z M12,3h1v3h-1z M14,3h2v3h-2z M17,3h1v1h-1z M20,3h4v1h-4z M25,3h7v1h-7z M3,4h1v6h-1z M9,4h1v6h-1z M19,4h1v1h-1z M21,4h1v1h-1z M23,4h1v1h-1z M25,4h1v6h-1z M31,4h1v6h-1z M5,5h3v3h-3z M13,5h1v1h-1z M17,5h2v1h-2z M20,5h1v1h-1z M27,5h3v3h-3z M14,6h1v2h-1z M16,6h1v1h-1z M19,6h1v1h-1z M21,6h3v1h-3z M12,7h1v1h-1z M23,7h1v3h-1z M11,8h1v2h-1z M13,8h1v3h-1z M15,8h1v2h-1z M18,8h2v1h-2z M21,8h1v3h-1z M22,8h1v1h-1z M4,9h5v1h-5z M17,9h1v1h-1z M19,9h1v4h-1z M26,9h5v1h-5z M14,10h1v1h-1z M16,10h1v1h-1z M18,10h1v1h-1z M20,10h1v1h-1z M3,11h1v1h-1z M6,11h1v3h-1z M8,11h2v1h-2z M11,11h1v2h-1z M15,11h1v1h-1z M17,11h1v1h-1z M23,11h2v1h-2z M26,11h1v1h-1z M7,12h1v1h-1z M10,12h1v1h-1z M16,12h1v3h-1z M18,12h1v2h-1z M20,12h2v2h-2z M24,12h1v5h-1z M25,12h1v2h-1z M28,12h1v2h-1z M31,12h1v1h-1z M4,13h1v2h-1z M8,13h1v3h-1z M9,13h1v1h-1z M12,13h1v1h-1z M17,13h1v1h-1z M22,13h2v2h-2z M26,13h2v1h-2z M29,13h2v2h-2z M3,14h1v6h-1z M5,14h1v3h-1z M10,14h2v1h-2z M13,14h1v1h-1z M15,14h1v3h-1z M19,14h1v3h-1z M21,14h1v1h-1z M6,15h1v1h-1z M9,15h1v1h-1z M12,15h1v2h-1z M17,15h2v2h-2z M20,15h1v5h-1z M25,15h1v1h-1z M28,15h1v1h-1z M30,15h2v1h-2z M7,16h1v2h-1z M11,16h1v1h-1z M16,16h1v2h-1z M22,16h1v1h-1z M9,17h2v1h-2z M14,17h1v1h-1z M17,17h1v1h-1z M23,17h1v2h-1z M28,17h4v1h-4z M6,18h1v2h-1z M10,18h1v2h-1z M12,18h1v4h-1z M19,18h1v1h-1z M21,18h2v1h-2z M24,18h1v4h-1z M26,18h1v1h-1z M28,18h1v1h-1z M30,18h1v2h-1z M8,19h2v1h-2z M11,19h1v1h-1z M13,19h1v2h-1z M16,19h1v2h-1z M18,19h1v1h-1z M22,19h1v1h-1z M15,20h1v6h-1z M17,20h1v3h-1z M19,20h1v2h-1z M21,20h1v2h-1z M23,20h1v2h-1z M25,20h2v1h-2z M28,20h1v1h-1z M31,20h1v3h-1z M3,21h1v1h-1z M8,21h2v1h-2z M11,21h1v1h-1z M20,21h1v2h-1z M26,21h1v1h-1z M30,21h1v2h-1z M5,22h2v2h-2z M7,22h1v1h-1z M18,22h1v2h-1z M22,22h1v2h-1z M27,22h1v8h-1z M3,23h1v1h-1z M8,23h2v1h-2z M13,23h1v1h-1z M19,23h1v2h-1z M21,23h1v1h-1z M23,23h1v5h-1z M24,23h3v1h-3z M29,23h1v2h-1z M11,24h2v1h-2z M14,24h1v2h-1z M17,24h1v1h-1z M30,24h2v1h-2z M3,25h7v1h-7z M20,25h1v1h-1z M25,25h1v1h-1z M30,25h1v1h-1z M3,26h1v6h-1z M9,26h1v6h-1z M11,26h1v1h-1z M13,26h1v2h-1z M17,26h3v1h-3z M21,26h2v1h-2z M28,26h2v1h-2z M5,27h3v3h-3z M14,27h2v1h-2z M18,27h3v1h-3z M24,27h3v1h-3z M31,27h1v1h-1z M11,28h2v1h-2z M16,28h1v1h-1z M25,28h2v1h-2z M28,28h2v2h-2z M30,28h1v1h-1z M12,29h1v1h-1z M14,29h1v2h-1z M20,29h3v1h-3z M24,29h1v3h-1z M31,29h1v1h-1z M15,30h2v1h-2z M18,30h3v1h-3z M23,30h1v2h-1z M26,30h1v2h-1z M30,30h1v2h-1z M4,31h5v1h-5z M11,31h1v1h-1z M13,31h1v1h-1z M15,31h1v1h-1z M17,31h1v1h-1z M20,31h1v1h-1z M25,31h1v1h-1z M28,31h1v1h-1z" fill="black"/>
</svg>
