<?xml version="1.0" encoding="UTF-8"?>
<!DOCTYPE svg PUBLIC "-//W3C//DTD SVG 1.1//EN" "http://www.w3.org/Graphics/SVG/1.1/DTD/svg11.dtd">
<svg xmlns="http://www.w3.org/2000/svg" version="1.1" viewBox="0 0 35 35" stroke="none">
	<rect width="100%" height="100%" fill="white"/>
	<path d="M3,3h7v1h-7z M11,3h3v1h-3z M15,3h4v1h-4z M21,3h1v2h-1z M23,3h1v5h-1z M25,3h7v1h-7z M3,4h1v6h-1z M9,4h1v6h-1z M13,4h1v1h-1z M15,4h1v2h-1z M18,4h1v1h-1z M20,4h1v4h-1z M25,4h1v6h-1z M31,4h1v6h-1z M5,5h3v3h-3z M11,5h2v1h-2z M16,5h1v1h-1z M22,5h1v1h-1z M27,5h3v3h-3z M13,6h2v1h-2z M18,6h2v2h-2z M21,6h1v1h-1z M12,7h2v1h-2z M11,8h1v2h-1z M15,8h1v4h-1z M16,8h2v1h-2z M19,8h1v2h-1z M21,8h1v3h-1z M4,9h5v1h-5z M13,9h1v5h-1z M17,9h1v1h-1z M23,9h1v1h-1z M26,9h5v1h-5z M14,10h1v1h-1z M16,10h1v2h-1z M3,11h1v2h-1z M5,11h1v1h-1z M9,11h2v1h-2z M12,11h1v1h-1z M18,11h2v1h-2z M22,11h1v3h-1z M26,11h1v2h-1z M29,11h1v1h-1z M31,11h1v3h-1z M4,12h1v1h-1z M6,12h2v1h-2z M10,12h2v1h-2z M19,12h1v4h-1z M21,12h1v3h-1z M25,12h1v1h-1z M30,12h1v1h-1z M5,13h1v3h-1z M8,13h1v6h-1z M9,13h2v1h-2z M12,13h1v2h-1z M14,13h1v1h-1z M16,13h2v1h-2z M23,13h1v1h-1z M27,13h3v1h-3z M3,14h1v1h-1z M6,14h2v1h-2z M17,14h1v3h-1z M18,14h1v1h-1z M28,14h1v1h-1z M4,15h1v4h-1z M9,15h3v1h-3z M13,15h1v4h-1z M15,15h2v2h-2z M22,15h1v3h-1z M25,15h2v2h-2z M31,15h1v3h-1z M3,16h1v3h-1z M6,16h1v5h-1z M11,16h1v3h-1z M12,16h1v1h-1z M30,16h1v1h-1z M5,17h1v1h-1z M7,17h1v2h-1z M9,17h1v1h-1z M14,17h1v1h-1z M18,17h1v6h-1z M19,17h2v1h-2z M24,17h1v1h-1z M10,18h1v1h-1z M12,18h1v1h-1z M15,18h1v6h-1z M16,18h1v2h-1z M21,18h1v1h-1z M23,18h1v1h-1z M9,19h1v1h-1z M14,19h1v2h-1z M19,19h1v2h-1z M22,19h1v4h-1z M25,19h2v2h-2z M31,19h1v3h-1z M4,20h1v2h-1z M7,20h2v1h-2z M11,20h3v1h-3z M21,20h1v2h-1z M29,20h2v1h-2z M3,21h1v1h-1z M5,21h1v2h-1z M8,21h3v1h-3z M16,21h2v1h-2z M23,21h1v1h-1z M28,21h1v1h-1z M7,22h2v1h-2z M10,22h1v2h-1z M17,22h1v3h-1z M19,22h1v3h-1z M24,22h4v2h-4z M3,23h2v1h-2z M6,23h2v1h-2z M9,23h1v1h-1z M12,23h1v2h-1z M16,23h1v2h-1z M21,23h1v1h-1z M23,23h1v5h-1z M28,23h1v2h-1z M30,23h1v1h-1z M11,24h1v2h-1z M13,24h1v1h-1z M18,24h1v6h-1z M20,24h1v1h-1z M22,24h1v1h-1z M27,24h1v6h-1z M29,24h1v1h-1z M31,24h1v2h-1z M3,25h7v1h-7z M14,25h1v1h-1z M25,25h1v1h-1z M3,26h1v6h-1z M9,26h1v6h-1z M12,26h2v1h-2z M15,26h2v2h-2z M21,26h1v1h-1z M30,26h1v2h-1z M5,27h3v3h-3z M12,27h1v1h-1z M19,27h2v2h-2z M22,27h1v1h-1z M24,27h3v1h-3z M28,27h1v2h-1z M31,27h1v3h-1z M13,28h2v1h-2z M24,28h1v1h-1z M29,28h1v1h-1z M11,29h2v1h-2z M14,29h1v1h-1z M16,29h1v1h-1z M21,29h1v1h-1z M23,29h1v3h-1z M30,29h1v1h-1z M12,30h1v2h-1z M17,30h1v2h-1z M22,30h1v1h-1z M28,30h1v2h-1z M4,31h5v1h-5z M11,31h1v1h-1z M13,31h4v1h-4z M18,31h2v1h-2z M31,31h1v1h-1z" fill="black"/>
</svg>
