<?xml version="1.0" encoding="UTF-8"?>
<!DOCTYPE svg PUBLIC "-//W3C//DTD SVG 1.1//EN" "http://www.w3.org/Graphics/SVG/1.1/DTD/svg11.dtd">
<svg xmlns="http://www.w3.org/2000/svg" version="1.1" viewBox="0 0 35 35" stroke="none">
	<rect width="100%" height="100%" fill="white"/>
	<path d="M3,3h7v1h-7z M11,3h1v1h-1z M18,3h2v1h-2z M21,3h1v2h-1z M23,3h1v5h-1z M25,3h7v1h-7z M3,4h1v6h-1z M9,4h1v6h-1z M12,4h1v1h-1z M14,4h4v1h-4z M19,4h2v2h-2z M25,4h1v6h-1z M31,4h1v6h-1z M5,5h3v3h-3z M11,5h1v1h-1z M14,5h2v1h-2z M17,5h1v3h-1z M18,5h1v1h-1z M22,5h1v1h-1z M27,5h3v3h-3z M12,6h1v2h-1z M14,6h1v1h-1z M20,6h2v1h-2z M16,7h1v1h-1z M18,7h1v2h-1z M20,7h1v1h-1z M11,8h1v2h-1z M21,8h1v3h-1z M4,9h5v1h-5z M13,9h1v1h-1z M15,9h1v1h-1z M17,9h1v4h-1z M19,9h1v3h-1z M23,9h1v1h-1z M26,9h5v1h-5z M12,10h1v3h-1z M14,10h1v5h-1z M18,10h1v1h-1z M3,11h1v1h-1z M5,11h1v5h-1z M9,11h2v1h-2z M16,11h1v2h-1z M22,11h1v3h-1z M26,11h1v2h-1z M29,11h1v1h-1z M31,11h1v3h-1z M4,12h1v1h-1z M6,12h2v2h-2z M11,12h1v1h-1z M13,12h1v3h-1z M21,12h1v3h-1z M25,12h1v1h-1z M30,12h1v1h-1z M3,13h1v3h-1z M9,13h2v1h-2z M15,13h1v1h-1z M18,13h2v1h-2z M23,13h1v1h-1z M27,13h3v1h-3z M4,14h1v4h-1z M6,14h1v1h-1z M8,14h1v1h-1z M16,14h1v2h-1z M28,14h1v1h-1z M9,15h4v1h-4z M15,15h1v1h-1z M18,15h1v3h-1z M22,15h1v3h-1z M25,15h2v2h-2z M31,15h1v3h-1z M7,16h2v3h-2z M10,16h5v1h-5z M19,16h1v1h-1z M30,16h1v1h-1z M5,17h1v1h-1z M9,17h2v1h-2z M16,17h2v1h-2z M20,17h1v1h-1z M24,17h1v1h-1z M3,18h1v2h-1z M12,18h1v1h-1z M15,18h1v1h-1z M17,18h1v3h-1z M19,18h1v1h-1z M21,18h1v1h-1z M23,18h1v1h-1z M4,19h3v1h-3z M8,19h4v1h-4z M14,19h1v2h-1z M16,19h1v2h-1z M18,19h1v4h-1z M22,19h1v4h-1z M25,19h2v2h-2z M31,19h1v3h-1z M7,20h1v3h-1z M8,20h1v1h-1z M15,20h1v2h-1z M19,20h1v5h-1z M21,20h1v2h-1z M29,20h2v1h-2z M3,21h2v1h-2z M9,21h1v1h-1z M13,21h1v1h-1z M23,21h1v1h-1z M28,21h1v1h-1z M5,22h2v2h-2z M12,22h1v1h-1z M14,22h1v3h-1z M16,22h1v2h-1z M24,22h4v2h-4z M3,23h2v1h-2z M8,23h3v1h-3z M15,23h1v4h-1z M21,23h1v1h-1z M23,23h1v5h-1z M28,23h1v2h-1z M30,23h1v1h-1z M11,24h3v1h-3z M18,24h1v6h-1z M20,24h1v1h-1z M22,24h1v1h-1z M27,24h1v6h-1z M29,24h1v1h-1z M31,24h1v6h-1z M3,25h7v1h-7z M11,25h1v1h-1z M16,25h2v1h-2z M25,25h1v1h-1z M3,26h1v6h-1z M9,26h1v6h-1z M12,26h1v3h-1z M13,26h1v1h-1z M17,26h1v5h-1z M19,26h1v3h-1z M21,26h1v1h-1z M5,27h3v3h-3z M14,27h1v2h-1z M16,27h1v1h-1z M22,27h1v1h-1z M24,27h3v1h-3z M28,27h1v2h-1z M30,27h1v1h-1z M13,28h1v1h-1z M15,28h1v2h-1z M21,28h1v3h-1z M24,28h1v1h-1z M29,28h1v1h-1z M11,29h1v1h-1z M23,29h1v3h-1z M30,29h1v1h-1z M13,30h1v1h-1z M22,30h1v1h-1z M28,30h1v2h-1z M4,31h5v1h-5z M11,31h2v1h-2z M14,31h1v1h-1z M16,31h1v1h-1z M19,31h1v1h-1z M31,31h1v1h-1z" fill="black"/>
</svg>
