<?xml version="1.0" encoding="UTF-8"?>
<!DOCTYPE svg PUBLIC "-//W3C//DTD SVG 1.1//EN" "http://www.w3.org/Graphics/SVG/1.1/DTD/svg11.dtd">
<svg xmlns="http://www.w3.org/2000/svg" version="1.1" viewBox="0 0 35 35" stroke="none">
	<rect width="100%" height="100%" fill="white"/>
	<path d="M3,3h7v1h-7z M15,3h4v1h-4z M20,3h4v1h-4z M25,3h7v1h-7z M3,4h1v6h-1z M9,4h1v6h-1z M11,4h1v1h-1z M17,4h2v1h-2z M21,4h3v1h-3z M25,4h1v6h-1z M31,4h1v6h-1z M5,5h3v3h-3z M13,5h3v1h-3z M19,5h1v2h-1z M23,5h1v3h-1z M27,5h3v3h-3z M13,6h1v1h-1z M17,6h2v1h-2z M21,6h2v1h-2z M11,7h2v1h-2z M18,7h1v2h-1z M22,7h1v2h-1z M12,8h1v1h-1z M20,8h2v1h-2z M4,9h5v1h-5z M11,9h1v1h-1z M13,9h1v2h-1z M15,9h1v1h-1z M17,9h1v2h-1z M19,9h1v1h-1z M21,9h1v2h-1z M23,9h1v1h-1z M26,9h5v1h-5z M12,10h1v3h-1z M16,10h1v3h-1z M20,10h1v7h-1z M22,10h1v1h-1z M3,11h1v1h-1z M5,11h1v3h-1z M7,11h1v1h-1z M9,11h1v1h-1z M27,11h1v1h-1z M30,11h1v1h-1z M14,12h1v1h-1z M19,12h1v1h-1z M21,12h1v3h-1z M24,12h1v5h-1z M25,12h1v1h-1z M28,12h1v1h-1z M31,12h1v2h-1z M3,13h1v1h-1z M6,13h1v1h-1z M9,13h3v1h-3z M13,13h1v1h-1z M15,13h1v1h-1z M23,13h1v1h-1z M26,13h2v1h-2z M29,13h2v1h-2z M7,14h2v1h-2z M10,14h1v4h-1z M11,14h1v1h-1z M14,14h1v1h-1z M16,14h4v1h-4z M22,14h1v1h-1z M26,14h1v1h-1z M30,14h1v2h-1z M4,15h2v2h-2z M6,15h1v1h-1z M8,15h1v3h-1z M9,15h1v1h-1z M15,15h1v2h-1z M17,15h1v1h-1z M25,15h1v2h-1z M28,15h1v6h-1z M31,15h1v3h-1z M3,16h1v4h-1z M13,16h1v3h-1z M19,16h1v2h-1z M4,17h1v2h-1z M6,17h1v1h-1z M9,17h1v1h-1z M11,17h1v4h-1z M12,17h1v1h-1z M14,17h1v1h-1z M16,17h1v1h-1z M26,17h1v2h-1z M30,17h1v3h-1z M5,18h1v2h-1z M7,18h1v2h-1z M15,18h1v1h-1z M18,18h1v1h-1z M20,18h1v6h-1z M21,18h4v1h-4z M6,19h1v2h-1z M8,19h2v1h-2z M14,19h1v1h-1z M24,19h2v2h-2z M31,19h1v3h-1z M4,20h1v1h-1z M13,20h1v1h-1z M15,20h2v1h-2z M19,20h1v3h-1z M21,20h1v2h-1z M29,20h1v1h-1z M3,21h1v1h-1z M7,21h1v2h-1z M9,21h2v1h-2z M14,21h1v11h-1z M15,21h1v1h-1z M17,21h1v4h-1z M23,21h2v1h-2z M26,21h1v1h-1z M30,21h1v2h-1z M4,22h2v1h-2z M11,22h1v1h-1z M16,22h1v1h-1z M18,22h1v1h-1z M25,22h1v2h-1z M27,22h1v8h-1z M28,22h1v1h-1z M3,23h1v1h-1z M5,23h2v1h-2z M9,23h1v1h-1z M12,23h2v1h-2z M21,23h4v1h-4z M26,23h1v1h-1z M11,24h1v1h-1z M19,24h1v1h-1z M23,24h1v4h-1z M29,24h3v1h-3z M3,25h7v1h-7z M15,25h1v3h-1z M16,25h1v1h-1z M20,25h1v4h-1z M22,25h1v2h-1z M25,25h1v1h-1z M28,25h1v2h-1z M30,25h2v1h-2z M3,26h1v6h-1z M9,26h1v6h-1z M13,26h1v2h-1z M21,26h1v1h-1z M31,26h1v4h-1z M5,27h3v3h-3z M11,27h1v1h-1z M24,27h3v1h-3z M30,27h1v2h-1z M12,28h1v1h-1z M16,28h1v2h-1z M19,28h1v1h-1z M21,28h2v1h-2z M26,28h1v4h-1z M29,28h1v1h-1z M11,29h1v1h-1z M17,29h1v1h-1z M22,29h3v1h-3z M28,29h1v1h-1z M12,30h1v2h-1z M15,30h1v1h-1z M18,30h3v1h-3z M23,30h2v2h-2z M30,30h1v2h-1z M4,31h5v1h-5z M11,31h1v1h-1z M13,31h1v1h-1z M16,31h2v1h-2z M19,31h2v1h-2z M22,31h1v1h-1z M31,31h1v1h-1z" fill="black"/>
</svg>
