<?xml version="1.0" encoding="UTF-8"?>
<!DOCTYPE svg PUBLIC "-//W3C//DTD SVG 1.1//EN" "http://www.w3.org/Graphics/SVG/1.1/DTD/svg11.dtd">
<svg xmlns="http://www.w3.org/2000/svg" version="1.1" viewBox="0 0 39 39" stroke="none">
	<rect width="100%" height="100%" fill="white"/>
	<path d="M3,3h7v1h-7z M12,3h1v5h-1z M15,3h1v1h-1z M17,3h2v1h-2z M22,3h1v1h-1z M26,3h1v2h-1z M29,3h7v1h-7z M3,4h1v6h-1z M9,4h1v6h-1z M11,4h1v2h-1z M16,4h1v4h-1z M20,4h1v1h-1z M23,4h3v1h-3z M29,4h1v6h-1z M35,4h1v6h-1z M5,5h3v3h-3z M13,5h1v1h-1z M15,5h1v2h-1z M19,5h1v5h-1z M21,5h1v3h-1z M22,5h1v1h-1z M27,5h1v3h-1z M31,5h3v3h-3z M17,6h1v6h-1z M25,6h1v4h-1z M26,6h1v1h-1z M13,7h2v2h-2z M18,7h1v1h-1z M20,7h1v1h-1z M24,7h1v1h-1z M4,9h5v1h-5z M11,9h1v1h-1z M13,9h1v2h-1z M15,9h1v1h-1z M21,9h1v2h-1z M23,9h1v1h-1z M27,9h1v2h-1z M30,9h5v1h-5z M14,10h1v1h-1z M16,10h1v1h-1z M18,10h1v2h-1z M20,10h1v3h-1z M22,10h1v1h-1z M4,11h3v1h-3z M8,11h2v1h-2z M12,11h1v1h-1z M15,11h1v2h-1z M23,11h2v1h-2z M33,11h2v1h-2z M5,12h4v1h-4z M16,12h1v3h-1z M19,12h1v1h-1z M21,12h2v1h-2z M24,12h1v2h-1z M26,12h1v2h-1z M29,12h2v3h-2z M32,12h1v4h-1z M33,12h1v1h-1z M35,12h1v3h-1z M6,13h2v2h-2z M9,13h1v1h-1z M11,13h1v7h-1z M21,13h1v1h-1z M23,13h1v1h-1z M27,13h1v1h-1z M31,13h1v1h-1z M34,13h1v1h-1z M3,14h1v4h-1z M4,14h2v1h-2z M8,14h1v1h-1z M12,14h2v1h-2z M18,14h1v1h-1z M20,14h1v1h-1z M22,14h1v1h-1z M25,14h1v3h-1z M7,15h1v2h-1z M9,15h1v1h-1z M13,15h1v4h-1z M14,15h1v1h-1z M17,15h1v2h-1z M19,15h1v4h-1z M27,15h2v2h-2z M31,15h1v1h-1z M6,16h1v2h-1z M8,16h1v1h-1z M12,16h1v1h-1z M16,16h1v1h-1z M18,16h1v3h-1z M20,16h1v1h-1z M23,16h2v3h-2z M30,16h1v2h-1z M34,16h1v1h-1z M4,17h1v1h-1z M9,17h2v1h-2z M14,17h2v2h-2z M21,17h2v1h-2z M29,17h1v4h-1z M31,17h2v1h-2z M5,18h1v1h-1z M12,18h1v1h-1z M17,18h1v3h-1z M20,18h1v1h-1z M22,18h1v2h-1z M25,18h4v1h-4z M32,18h2v1h-2z M6,19h2v1h-2z M9,19h2v1h-2z M15,19h2v1h-2z M24,19h3v1h-3z M28,19h1v4h-1z M31,19h1v4h-1z M33,19h1v1h-1z M3,20h2v1h-2z M7,20h1v5h-1z M10,20h1v1h-1z M12,20h2v1h-2z M18,20h2v2h-2z M21,20h1v1h-1z M26,20h2v1h-2z M32,20h1v1h-1z M35,20h1v1h-1z M4,21h3v1h-3z M8,21h2v1h-2z M11,21h1v2h-1z M15,21h1v1h-1z M20,21h1v1h-1z M23,21h1v1h-1z M25,21h1v1h-1z M30,21h1v1h-1z M33,21h2v1h-2z M6,22h1v1h-1z M12,22h3v1h-3z M16,22h2v1h-2z M19,22h1v3h-1z M29,22h1v1h-1z M34,22h2v1h-2z M4,23h1v1h-1z M8,23h1v4h-1z M9,23h1v1h-1z M13,23h1v1h-1z M16,23h1v1h-1z M21,23h2v1h-2z M24,23h1v3h-1z M27,23h1v1h-1z M32,23h2v1h-2z M3,24h1v1h-1z M5,24h1v3h-1z M14,24h2v1h-2z M17,24h1v8h-1z M22,24h2v1h-2z M26,24h1v2h-1z M28,24h1v4h-1z M29,24h1v1h-1z M33,24h1v2h-1z M35,24h1v4h-1z M9,25h3v1h-3z M16,25h1v1h-1z M18,25h1v2h-1z M21,25h1v3h-1z M27,25h1v8h-1z M32,25h1v1h-1z M34,25h1v1h-1z M4,26h1v1h-1z M6,26h2v1h-2z M10,26h1v1h-1z M13,26h1v5h-1z M15,26h1v1h-1z M19,26h2v1h-2z M22,26h2v1h-2z M30,26h2v2h-2z M3,27h1v1h-1z M6,27h1v1h-1z M9,27h1v1h-1z M12,27h1v1h-1z M14,27h1v1h-1z M20,27h1v2h-1z M23,27h1v2h-1z M25,27h1v7h-1z M29,27h1v1h-1z M11,28h1v1h-1z M16,28h1v1h-1z M18,28h1v3h-1z M22,28h1v4h-1z M24,28h1v1h-1z M26,28h1v8h-1z M31,28h1v4h-1z M32,28h1v1h-1z M34,28h1v1h-1z M3,29h7v1h-7z M15,29h1v4h-1z M19,29h1v1h-1z M29,29h1v1h-1z M3,30h1v6h-1z M9,30h1v6h-1z M11,30h2v1h-2z M14,30h1v1h-1z M24,30h1v2h-1z M32,30h4v1h-4z M5,31h3v3h-3z M23,31h1v2h-1z M28,31h3v1h-3z M33,31h2v2h-2z M11,32h4v1h-4z M16,32h1v1h-1z M19,32h1v4h-1z M20,32h1v1h-1z M30,32h1v3h-1z M32,32h1v2h-1z M35,32h1v1h-1z M11,33h1v2h-1z M13,33h2v1h-2z M18,33h1v1h-1z M24,33h1v1h-1z M29,33h1v3h-1z M14,34h2v1h-2z M20,34h2v1h-2z M27,34h1v1h-1z M31,34h1v2h-1z M35,34h1v1h-1z M4,35h5v1h-5z M14,35h1v1h-1z M16,35h2v1h-2z M20,35h1v1h-1z M22,35h4v1h-4z M32,35h2v1h-2z" fill="black"/>
</svg>
