<?xml version="1.0" encoding="UTF-8"?>
<!DOCTYPE svg PUBLIC "-//W3C//DTD SVG 1.1//EN" "http://www.w3.org/Graphics/SVG/1.1/DTD/svg11.dtd">
<svg xmlns="http://www.w3.org/2000/svg" version="1.1" viewBox="0 0 35 35" stroke="none">
	<rect width="100%" height="100%" fill="white"/>
	<path d="M3,3h7v1h-7z M14,3h3v3h-3z M18,3h1v4h-1z M20,3h3v1h-3z M25,3h7v1h-7z M3,4h1v6h-1z M9,4h1v6h-1z M12,4h2v1h-2z M17,4h1v1h-1z M20,4h1v1h-1z M23,4h1v1h-1z M25,4h1v6h-1z M31,4h1v6h-1z M5,5h3v3h-3z M11,5h1v6h-1z M19,5h1v5h-1z M27,5h3v3h-3z M12,6h4v1h-4z M17,6h1v1h-1z M20,6h1v1h-1z M23,6h1v1h-1z M15,7h1v1h-1z M22,7h1v1h-1z M12,8h1v1h-1z M18,8h1v1h-1z M4,9h5v1h-5z M13,9h1v1h-1z M15,9h1v1h-1z M17,9h1v2h-1z M21,9h1v1h-1z M23,9h1v1h-1z M26,9h5v1h-5z M12,10h1v2h-1z M3,11h1v2h-1z M5,11h1v7h-1z M6,11h4v1h-4z M13,11h1v1h-1z M18,11h3v1h-3z M23,11h1v1h-1z M25,11h3v3h-3z M28,11h2v1h-2z M6,12h2v1h-2z M15,12h3v1h-3z M19,12h1v3h-1z M22,12h1v1h-1z M24,12h1v1h-1z M31,12h1v1h-1z M4,13h1v5h-1z M7,13h4v1h-4z M13,13h2v1h-2z M16,13h3v1h-3z M20,13h2v1h-2z M7,14h1v3h-1z M16,14h1v1h-1z M18,14h1v2h-1z M24,14h1v1h-1z M27,14h2v1h-2z M30,14h1v1h-1z M3,15h1v1h-1z M8,15h2v1h-2z M14,15h1v1h-1z M17,15h1v1h-1z M20,15h1v1h-1z M23,15h1v1h-1z M28,15h2v1h-2z M11,16h1v2h-1z M19,16h1v1h-1z M21,16h2v1h-2z M24,16h3v2h-3z M27,16h1v1h-1z M31,16h1v1h-1z M6,17h1v1h-1z M8,17h3v1h-3z M12,17h2v1h-2z M15,17h1v2h-1z M18,17h1v3h-1z M23,17h1v3h-1z M28,17h2v1h-2z M3,18h1v1h-1z M7,18h1v6h-1z M10,18h1v1h-1z M13,18h2v1h-2z M17,18h1v1h-1z M19,18h1v3h-1z M24,18h1v1h-1z M27,18h1v1h-1z M30,18h1v1h-1z M4,19h1v1h-1z M9,19h1v1h-1z M11,19h2v1h-2z M14,19h1v3h-1z M20,19h1v1h-1z M28,19h2v1h-2z M3,20h1v4h-1z M6,20h1v2h-1z M10,20h1v1h-1z M13,20h1v3h-1z M15,20h3v1h-3z M22,20h1v1h-1z M24,20h4v1h-4z M29,20h1v2h-1z M31,20h1v1h-1z M8,21h2v1h-2z M11,21h1v4h-1z M16,21h3v1h-3z M20,21h2v1h-2z M25,21h2v3h-2z M5,22h1v2h-1z M8,22h1v1h-1z M15,22h2v1h-2z M21,22h2v3h-2z M30,22h1v3h-1z M9,23h2v1h-2z M12,23h1v1h-1z M17,23h4v1h-4z M23,23h1v5h-1z M24,23h1v1h-1z M27,23h1v5h-1z M29,23h1v3h-1z M31,23h1v2h-1z M13,24h2v2h-2z M15,24h1v1h-1z M19,24h2v2h-2z M28,24h1v2h-1z M3,25h7v1h-7z M18,25h1v3h-1z M22,25h1v1h-1z M25,25h1v1h-1z M3,26h1v6h-1z M9,26h1v6h-1z M11,26h1v4h-1z M15,26h1v1h-1z M17,26h1v1h-1z M19,26h1v1h-1z M30,26h1v1h-1z M5,27h3v3h-3z M13,27h2v1h-2z M20,27h1v1h-1z M24,27h3v1h-3z M29,27h1v3h-1z M12,28h2v1h-2z M16,28h2v1h-2z M19,28h1v2h-1z M28,28h1v3h-1z M30,28h1v3h-1z M31,28h1v1h-1z M14,29h2v1h-2z M18,29h1v1h-1z M22,29h1v3h-1z M25,29h3v1h-3z M13,30h1v1h-1z M15,30h1v2h-1z M17,30h1v2h-1z M23,30h2v1h-2z M27,30h1v1h-1z M4,31h5v1h-5z M11,31h1v1h-1z M14,31h1v1h-1z M18,31h3v1h-3z M25,31h2v1h-2z M29,31h1v1h-1z" fill="black"/>
</svg>
