<?xml version="1.0" encoding="UTF-8"?>
<!DOCTYPE svg PUBLIC "-//W3C//DTD SVG 1.1//EN" "http://www.w3.org/Graphics/SVG/1.1/DTD/svg11.dtd">
<svg xmlns="http://www.w3.org/2000/svg" version="1.1" viewBox="0 0 35 35" stroke="none">
	<rect width="100%" height="100%" fill="white"/>
	<path d="M3,3h7v1h-7z M13,3h1v1h-1z M15,3h1v1h-1z M18,3h1v1h-1z M21,3h2v1h-2z M25,3h7v1h-7z M3,4h1v6h-1z M9,4h1v6h-1z M11,4h2v1h-2z M16,4h1v2h-1z M23,4h1v1h-1z M25,4h1v6h-1z M31,4h1v6h-1z M5,5h3v3h-3z M11,5h1v1h-1z M15,5h1v7h-1z M18,5h2v1h-2z M21,5h1v1h-1z M27,5h3v3h-3z M12,6h1v1h-1z M17,6h1v2h-1z M20,6h1v1h-1z M13,7h1v6h-1z M14,7h1v1h-1z M18,7h1v2h-1z M22,7h1v2h-1z M16,8h1v1h-1z M20,8h2v1h-2z M23,8h1v2h-1z M4,9h5v1h-5z M11,9h1v1h-1z M17,9h1v2h-1z M19,9h1v2h-1z M21,9h1v3h-1z M26,9h5v1h-5z M12,10h1v1h-1z M14,10h1v3h-1z M16,10h1v4h-1z M18,10h1v1h-1z M20,10h1v2h-1z M22,10h1v1h-1z M4,11h3v1h-3z M8,11h2v1h-2z M23,11h1v2h-1z M29,11h2v1h-2z M3,12h1v4h-1z M4,12h1v1h-1z M7,12h1v3h-1z M12,12h1v2h-1z M17,12h1v1h-1z M22,12h1v1h-1z M24,12h2v1h-2z M27,12h1v1h-1z M29,12h1v1h-1z M31,12h1v1h-1z M5,13h1v1h-1z M8,13h2v1h-2z M11,13h1v4h-1z M18,13h2v2h-2z M20,13h1v1h-1z M25,13h1v1h-1z M30,13h1v1h-1z M4,14h1v2h-1z M6,14h1v4h-1z M14,14h2v1h-2z M21,14h3v1h-3z M28,14h1v6h-1z M31,14h1v4h-1z M9,15h2v1h-2z M15,15h2v1h-2z M18,15h1v1h-1z M20,15h1v1h-1z M24,15h1v1h-1z M26,15h1v3h-1z M29,15h2v2h-2z M5,16h1v4h-1z M16,16h2v1h-2z M22,16h1v2h-1z M25,16h1v1h-1z M7,17h1v1h-1z M9,17h1v1h-1z M13,17h2v1h-2z M16,17h1v1h-1z M19,17h1v5h-1z M24,17h1v1h-1z M27,17h1v3h-1z M11,18h2v2h-2z M15,18h1v3h-1z M18,18h1v2h-1z M23,18h1v10h-1z M25,18h1v1h-1z M30,18h1v2h-1z M4,19h1v2h-1z M6,19h2v1h-2z M9,19h1v1h-1z M14,19h1v2h-1z M16,19h1v1h-1z M21,19h2v1h-2z M24,19h1v2h-1z M12,20h2v1h-2z M20,20h1v1h-1z M3,21h1v1h-1z M5,21h1v1h-1z M7,21h1v2h-1z M9,21h1v1h-1z M12,21h1v1h-1z M17,21h2v1h-2z M25,21h1v3h-1z M27,21h2v1h-2z M6,22h1v1h-1z M10,22h1v1h-1z M13,22h1v4h-1z M14,22h1v1h-1z M20,22h1v3h-1z M22,22h1v2h-1z M24,22h1v2h-1z M26,22h1v2h-1z M29,22h1v2h-1z M31,22h1v1h-1z M4,23h2v1h-2z M9,23h1v1h-1z M12,23h1v1h-1z M15,23h1v2h-1z M21,23h1v5h-1z M27,23h1v6h-1z M30,23h1v1h-1z M11,24h1v1h-1z M16,24h2v1h-2z M19,24h1v2h-1z M28,24h1v1h-1z M31,24h1v1h-1z M3,25h7v1h-7z M12,25h1v1h-1z M22,25h1v1h-1z M25,25h1v1h-1z M29,25h2v1h-2z M3,26h1v6h-1z M9,26h1v6h-1z M11,26h1v1h-1z M14,26h1v3h-1z M16,26h1v3h-1z M18,26h1v1h-1z M30,26h1v3h-1z M5,27h3v3h-3z M12,27h1v1h-1z M15,27h1v1h-1z M24,27h3v1h-3z M28,27h2v1h-2z M11,28h1v3h-1z M19,28h1v3h-1z M22,28h1v1h-1z M29,28h1v1h-1z M12,29h2v1h-2z M18,29h1v1h-1z M23,29h1v3h-1z M26,29h1v1h-1z M28,29h1v1h-1z M31,29h1v1h-1z M14,30h1v1h-1z M16,30h2v2h-2z M21,30h2v2h-2z M27,30h1v1h-1z M30,30h1v2h-1z M4,31h5v1h-5z M13,31h1v1h-1z M15,31h1v1h-1z M18,31h1v1h-1z M24,31h1v1h-1z M26,31h1v1h-1z M28,31h1v1h-1z" fill="black"/>
</svg>
