<?xml version="1.0" encoding="UTF-8"?>
<!DOCTYPE svg PUBLIC "-//W3C//DTD SVG 1.1//EN" "http://www.w3.org/Graphics/SVG/1.1/DTD/svg11.dtd">
<svg xmlns="http://www.w3.org/2000/svg" version="1.1" viewBox="0 0 2021 2021" stroke="none">
	<rect width="100%" height="100%" fill="white"/>
	<path d="M1000,1000h7v1h-7z M1012,1000h1v1h-1z M1014,1000h7v1h-7z M1000,1001h1v6h-1z M1006,1001h1v6h-1z M1009,1001h1v1h-1z M1011,1001h1v2h-1z M1014,1001h1v6h-1z M1020,1001h1v6h-1z M1002,1002h3v3h-3z M1008,1002h1v6h-1z M1010,1002h1v1h-1z M1012,1002h1v1h-1z M1016,1002h3v3h-3z M1009,1004h1v2h-1z M1012,1004h1v1h-1z M1010,1005h1v4h-1z M1011,1005h1v1h-1z M1001,1006h5v1h-5z M1012,1006h1v1h-1z M1015,1006h5v1h-5z M1000,1008h1v1h-1z M1002,1008h5v1h-5z M1009,1008h1v1h-1z M1011,1008h1v1h-1z M1014,1008h5v1h-5z M1003,1009h2v1h-2z M1007,1009h2v1h-2z M1012,1009h2v3h-2z M1016,1009h3v1h-3z M1020,1009h1v1h-1z M1003,1010h1v1h-1z M1006,1010h1v1h-1z M1008,1010h3v1h-3z M1014,1010h1v1h-1z M1017,1010h2v2h-2z M1019,1010h1v1h-1z M1001,1011h2v1h-2z M1005,1011h1v2h-1z M1007,1011h1v1h-1z M1010,1011h2v1h-2z M1015,1011h1v5h-1z M1000,1012h2v1h-2z M1003,1012h2v1h-2z M1006,1012h1v1h-1z M1008,1012h1v2h-1z M1012,1012h1v1h-1z M1014,1012h1v3h-1z M1020,1012h1v1h-1z M1013,1013h1v4h-1z M1016,1013h2v1h-2z M1000,1014h7v1h-7z M1009,1014h2v1h-2z M1012,1014h1v3h-1z M1018,1014h2v2h-2z M1000,1015h1v6h-1z M1006,1015h1v6h-1z M1008,1015h1v4h-1z M1010,1015h1v1h-1z M1017,1015h1v1h-1z M1002,1016h3v3h-3z M1009,1016h1v1h-1z M1011,1016h1v1h-1z M1014,1016h1v1h-1z M1016,1016h1v2h-1z M1019,1016h2v1h-2z M1010,1017h1v3h-1z M1015,1017h1v2h-1z M1017,1017h1v1h-1z M1009,1018h1v1h-1z M1011,1018h2v1h-2z M1014,1018h1v1h-1z M1018,1018h1v2h-1z M1012,1019h2v1h-2z M1016,1019h2v1h-2z M1001,1020h5v1h-5z M1008,1020h2v1h-2z M1011,1020h1v1h-1z M1014,1020h1v1h-1z M1016,1020h1v1h-1z M1019,1020h1v1h-1z" fill="black"/>
</svg>
