<?xml version="1.0" encoding="UTF-8"?>
<!DOCTYPE svg PUBLIC "-//W3C//DTD SVG 1.1//EN" "http://www.w3.org/Graphics/SVG/1.1/DTD/svg11.dtd">
<svg xmlns="http://www.w3.org/2000/svg" version="1.1" viewBox="0 0 2029 2029" stroke="none">
	<rect width="100%" height="100%" fill="white"/>
	<path d="M1000,1000h7v1h-7z M1008,1000h1v5h-1z M1009,1000h1v2h-1z M1011,1000h2v2h-2z M1014,1000h2v1h-2z M1018,1000h3v1h-3z M1022,1000h7v1h-7z M1000,1001h1v6h-1z M1006,1001h1v6h-1z M1013,1001h1v1h-1z M1015,1001h1v1h-1z M1019,1001h1v5h-1z M1022,1001h1v6h-1z M1028,1001h1v6h-1z M1002,1002h3v3h-3z M1016,1002h1v3h-1z M1020,1002h1v1h-1z M1024,1002h3v3h-3z M1009,1003h2v1h-2z M1012,1003h1v1h-1z M1014,1003h2v1h-2z M1018,1003h1v5h-1z M1011,1004h1v1h-1z M1013,1004h1v1h-1z M1017,1004h1v1h-1z M1009,1005h2v1h-2z M1012,1005h1v3h-1z M1015,1005h1v1h-1z M1020,1005h1v3h-1z M1001,1006h5v1h-5z M1008,1006h1v2h-1z M1010,1006h1v2h-1z M1014,1006h1v1h-1z M1016,1006h1v1h-1z M1023,1006h5v1h-5z M1013,1007h1v2h-1z M1015,1007h1v2h-1z M1017,1007h1v3h-1z M1001,1008h2v1h-2z M1004,1008h1v1h-1z M1006,1008h2v1h-2z M1011,1008h1v1h-1z M1014,1008h1v1h-1z M1019,1008h1v1h-1z M1022,1008h1v2h-1z M1024,1008h5v1h-5z M1002,1009h2v2h-2z M1005,1009h1v3h-1z M1012,1009h1v1h-1z M1016,1009h1v1h-1z M1020,1009h2v1h-2z M1023,1009h1v9h-1z M1025,1009h2v1h-2z M1028,1009h1v2h-1z M1004,1010h1v3h-1z M1006,1010h6v1h-6z M1018,1010h1v2h-1z M1024,1010h1v1h-1z M1027,1010h1v2h-1z M1000,1011h1v5h-1z M1003,1011h1v2h-1z M1008,1011h1v1h-1z M1011,1011h1v7h-1z M1012,1011h3v1h-3z M1016,1011h2v1h-2z M1019,1011h4v1h-4z M1025,1011h1v2h-1z M1006,1012h2v1h-2z M1010,1012h1v2h-1z M1012,1012h1v1h-1z M1014,1012h1v3h-1z M1017,1012h1v2h-1z M1020,1012h1v6h-1z M1022,1012h1v2h-1z M1005,1013h1v2h-1z M1007,1013h2v1h-2z M1016,1013h1v1h-1z M1021,1013h1v2h-1z M1028,1013h1v2h-1z M1001,1014h3v1h-3z M1006,1014h1v1h-1z M1008,1014h2v3h-2z M1012,1014h2v1h-2z M1015,1014h1v5h-1z M1018,1014h1v2h-1z M1026,1014h1v1h-1z M1013,1015h1v1h-1z M1016,1015h1v5h-1z M1017,1015h1v2h-1z M1019,1015h1v2h-1z M1022,1015h1v3h-1z M1027,1015h1v4h-1z M1002,1016h1v1h-1z M1004,1016h3v1h-3z M1010,1016h1v2h-1z M1021,1016h1v1h-1z M1025,1016h1v1h-1z M1028,1016h1v4h-1z M1003,1017h1v2h-1z M1005,1017h1v2h-1z M1008,1017h1v1h-1z M1012,1017h1v1h-1z M1000,1018h1v1h-1z M1006,1018h1v1h-1z M1013,1018h2v1h-2z M1021,1018h1v1h-1z M1024,1018h3v1h-3z M1001,1019h2v1h-2z M1004,1019h1v2h-1z M1008,1019h2v1h-2z M1013,1019h1v1h-1z M1017,1019h1v6h-1z M1022,1019h2v2h-2z M1025,1019h1v2h-1z M1000,1020h1v1h-1z M1003,1020h1v1h-1z M1006,1020h2v1h-2z M1012,1020h1v3h-1z M1015,1020h1v1h-1z M1020,1020h1v6h-1z M1021,1020h1v1h-1z M1024,1020h1v7h-1z M1027,1020h1v1h-1z M1008,1021h2v2h-2z M1013,1021h1v3h-1z M1016,1021h1v1h-1z M1019,1021h1v2h-1z M1028,1021h1v4h-1z M1000,1022h7v1h-7z M1011,1022h1v1h-1z M1018,1022h1v1h-1z M1022,1022h1v1h-1z M1026,1022h2v1h-2z M1000,1023h1v6h-1z M1006,1023h1v6h-1z M1010,1023h1v2h-1z M1016,1023h1v2h-1z M1002,1024h3v3h-3z M1008,1024h2v1h-2z M1014,1024h2v2h-2z M1021,1024h3v1h-3z M1025,1024h1v2h-1z M1011,1025h3v1h-3z M1021,1025h1v1h-1z M1008,1026h1v2h-1z M1011,1026h1v2h-1z M1013,1026h1v1h-1z M1018,1026h2v1h-2z M1023,1026h1v2h-1z M1026,1026h1v1h-1z M1028,1026h1v1h-1z M1012,1027h1v1h-1z M1017,1027h1v2h-1z M1020,1027h1v2h-1z M1025,1027h1v2h-1z M1027,1027h1v2h-1z M1001,1028h5v1h-5z M1009,1028h1v1h-1z M1013,1028h1v1h-1z M1016,1028h1v1h-1z M1019,1028h1v1h-1z M1021,1028h2v1h-2z M1024,1028h1v1h-1z M1028,1028h1v1h-1z" fill="black"/>
</svg>
